<?xml version="1.0" encoding="utf-8"?>
<svg xmlns="http://www.w3.org/2000/svg" xmlns:xlink="http://www.w3.org/1999/xlink" width="800" height="500" viewBox="0 0 800 500">
<defs>
  <clipPath id="clip00">
    <rect x="0" y="0" width="800" height="500"/>
  </clipPath>
</defs>
<polygon clip-path="url(#clip00)" points="
0,500 800,500 800,0 0,0 
  " fill="#ffffff" fill-opacity="1"/>
<defs>
  <clipPath id="clip01">
    <rect x="160" y="0" width="561" height="500"/>
  </clipPath>
</defs>
<polygon clip-path="url(#clip00)" points="
55.1181,208.661 792.126,208.661 792.126,7.87402 55.1181,7.87402 
  " fill="#ffffff" fill-opacity="1"/>
<defs>
  <clipPath id="clip02">
    <rect x="55" y="7" width="738" height="202"/>
  </clipPath>
</defs>
<polyline clip-path="url(#clip02)" style="stroke:#000000; stroke-width:1; stroke-opacity:0.5; fill:none" stroke-dasharray="1, 2" points="
  55.1181,205.65 55.1181,10.8858 
  "/>
<polyline clip-path="url(#clip02)" style="stroke:#000000; stroke-width:1; stroke-opacity:0.5; fill:none" stroke-dasharray="1, 2" points="
  177.953,205.65 177.953,10.8858 
  "/>
<polyline clip-path="url(#clip02)" style="stroke:#000000; stroke-width:1; stroke-opacity:0.5; fill:none" stroke-dasharray="1, 2" points="
  300.787,205.65 300.787,10.8858 
  "/>
<polyline clip-path="url(#clip02)" style="stroke:#000000; stroke-width:1; stroke-opacity:0.5; fill:none" stroke-dasharray="1, 2" points="
  423.622,205.65 423.622,10.8858 
  "/>
<polyline clip-path="url(#clip02)" style="stroke:#000000; stroke-width:1; stroke-opacity:0.5; fill:none" stroke-dasharray="1, 2" points="
  546.457,205.65 546.457,10.8858 
  "/>
<polyline clip-path="url(#clip02)" style="stroke:#000000; stroke-width:1; stroke-opacity:0.5; fill:none" stroke-dasharray="1, 2" points="
  669.291,205.65 669.291,10.8858 
  "/>
<polyline clip-path="url(#clip02)" style="stroke:#000000; stroke-width:1; stroke-opacity:0.5; fill:none" stroke-dasharray="1, 2" points="
  792.126,205.65 792.126,10.8858 
  "/>
<polyline clip-path="url(#clip02)" style="stroke:#000000; stroke-width:1; stroke-opacity:0.5; fill:none" stroke-dasharray="1, 2" points="
  66.1732,177.194 781.071,177.194 
  "/>
<polyline clip-path="url(#clip02)" style="stroke:#000000; stroke-width:1; stroke-opacity:0.5; fill:none" stroke-dasharray="1, 2" points="
  66.1732,142.448 781.071,142.448 
  "/>
<polyline clip-path="url(#clip02)" style="stroke:#000000; stroke-width:1; stroke-opacity:0.5; fill:none" stroke-dasharray="1, 2" points="
  66.1732,107.702 781.071,107.702 
  "/>
<polyline clip-path="url(#clip02)" style="stroke:#000000; stroke-width:1; stroke-opacity:0.5; fill:none" stroke-dasharray="1, 2" points="
  66.1732,72.9559 781.071,72.9559 
  "/>
<polyline clip-path="url(#clip02)" style="stroke:#000000; stroke-width:1; stroke-opacity:0.5; fill:none" stroke-dasharray="1, 2" points="
  66.1732,38.2098 781.071,38.2098 
  "/>
<polyline clip-path="url(#clip00)" style="stroke:#000000; stroke-width:1; stroke-opacity:1; fill:none" points="
  55.1181,208.661 792.126,208.661 
  "/>
<polyline clip-path="url(#clip00)" style="stroke:#000000; stroke-width:1; stroke-opacity:1; fill:none" points="
  55.1181,208.661 55.1181,205.65 
  "/>
<polyline clip-path="url(#clip00)" style="stroke:#000000; stroke-width:1; stroke-opacity:1; fill:none" points="
  177.953,208.661 177.953,205.65 
  "/>
<polyline clip-path="url(#clip00)" style="stroke:#000000; stroke-width:1; stroke-opacity:1; fill:none" points="
  300.787,208.661 300.787,205.65 
  "/>
<polyline clip-path="url(#clip00)" style="stroke:#000000; stroke-width:1; stroke-opacity:1; fill:none" points="
  423.622,208.661 423.622,205.65 
  "/>
<polyline clip-path="url(#clip00)" style="stroke:#000000; stroke-width:1; stroke-opacity:1; fill:none" points="
  546.457,208.661 546.457,205.65 
  "/>
<polyline clip-path="url(#clip00)" style="stroke:#000000; stroke-width:1; stroke-opacity:1; fill:none" points="
  669.291,208.661 669.291,205.65 
  "/>
<polyline clip-path="url(#clip00)" style="stroke:#000000; stroke-width:1; stroke-opacity:1; fill:none" points="
  792.126,208.661 792.126,205.65 
  "/>
<polyline clip-path="url(#clip00)" style="stroke:#000000; stroke-width:1; stroke-opacity:1; fill:none" points="
  55.1181,208.661 55.1181,7.87402 
  "/>
<polyline clip-path="url(#clip00)" style="stroke:#000000; stroke-width:1; stroke-opacity:1; fill:none" points="
  55.1181,177.194 66.1732,177.194 
  "/>
<polyline clip-path="url(#clip00)" style="stroke:#000000; stroke-width:1; stroke-opacity:1; fill:none" points="
  55.1181,142.448 66.1732,142.448 
  "/>
<polyline clip-path="url(#clip00)" style="stroke:#000000; stroke-width:1; stroke-opacity:1; fill:none" points="
  55.1181,107.702 66.1732,107.702 
  "/>
<polyline clip-path="url(#clip00)" style="stroke:#000000; stroke-width:1; stroke-opacity:1; fill:none" points="
  55.1181,72.9559 66.1732,72.9559 
  "/>
<polyline clip-path="url(#clip00)" style="stroke:#000000; stroke-width:1; stroke-opacity:1; fill:none" points="
  55.1181,38.2098 66.1732,38.2098 
  "/>
<g clip-path="url(#clip00)">
<text style="fill:#000000; fill-opacity:1; font-family:Arial,Helvetica Neue,Helvetica,sans-serif; font-size:12; text-anchor:start;" transform="rotate(0, 45.8514, 228.413)" x="45.8514" y="228.413">10</text>
</g>
<g clip-path="url(#clip00)">
<text style="fill:#000000; fill-opacity:1; font-family:Arial,Helvetica Neue,Helvetica,sans-serif; font-size:10; text-anchor:start;" transform="rotate(0, 59.0307, 221.561)" x="59.0307" y="221.561">1</text>
</g>
<g clip-path="url(#clip00)">
<text style="fill:#000000; fill-opacity:1; font-family:Arial,Helvetica Neue,Helvetica,sans-serif; font-size:12; text-anchor:start;" transform="rotate(0, 168.686, 228.413)" x="168.686" y="228.413">10</text>
</g>
<g clip-path="url(#clip00)">
<text style="fill:#000000; fill-opacity:1; font-family:Arial,Helvetica Neue,Helvetica,sans-serif; font-size:10; text-anchor:start;" transform="rotate(0, 181.865, 221.561)" x="181.865" y="221.561">2</text>
</g>
<g clip-path="url(#clip00)">
<text style="fill:#000000; fill-opacity:1; font-family:Arial,Helvetica Neue,Helvetica,sans-serif; font-size:12; text-anchor:start;" transform="rotate(0, 291.521, 228.413)" x="291.521" y="228.413">10</text>
</g>
<g clip-path="url(#clip00)">
<text style="fill:#000000; fill-opacity:1; font-family:Arial,Helvetica Neue,Helvetica,sans-serif; font-size:10; text-anchor:start;" transform="rotate(0, 304.7, 221.561)" x="304.7" y="221.561">3</text>
</g>
<g clip-path="url(#clip00)">
<text style="fill:#000000; fill-opacity:1; font-family:Arial,Helvetica Neue,Helvetica,sans-serif; font-size:12; text-anchor:start;" transform="rotate(0, 414.355, 228.413)" x="414.355" y="228.413">10</text>
</g>
<g clip-path="url(#clip00)">
<text style="fill:#000000; fill-opacity:1; font-family:Arial,Helvetica Neue,Helvetica,sans-serif; font-size:10; text-anchor:start;" transform="rotate(0, 427.535, 221.561)" x="427.535" y="221.561">4</text>
</g>
<g clip-path="url(#clip00)">
<text style="fill:#000000; fill-opacity:1; font-family:Arial,Helvetica Neue,Helvetica,sans-serif; font-size:12; text-anchor:start;" transform="rotate(0, 537.19, 228.413)" x="537.19" y="228.413">10</text>
</g>
<g clip-path="url(#clip00)">
<text style="fill:#000000; fill-opacity:1; font-family:Arial,Helvetica Neue,Helvetica,sans-serif; font-size:10; text-anchor:start;" transform="rotate(0, 550.369, 221.561)" x="550.369" y="221.561">5</text>
</g>
<g clip-path="url(#clip00)">
<text style="fill:#000000; fill-opacity:1; font-family:Arial,Helvetica Neue,Helvetica,sans-serif; font-size:12; text-anchor:start;" transform="rotate(0, 660.025, 228.413)" x="660.025" y="228.413">10</text>
</g>
<g clip-path="url(#clip00)">
<text style="fill:#000000; fill-opacity:1; font-family:Arial,Helvetica Neue,Helvetica,sans-serif; font-size:10; text-anchor:start;" transform="rotate(0, 673.204, 221.561)" x="673.204" y="221.561">6</text>
</g>
<g clip-path="url(#clip00)">
<text style="fill:#000000; fill-opacity:1; font-family:Arial,Helvetica Neue,Helvetica,sans-serif; font-size:12; text-anchor:start;" transform="rotate(0, 782.859, 228.413)" x="782.859" y="228.413">10</text>
</g>
<g clip-path="url(#clip00)">
<text style="fill:#000000; fill-opacity:1; font-family:Arial,Helvetica Neue,Helvetica,sans-serif; font-size:10; text-anchor:start;" transform="rotate(0, 796.039, 221.561)" x="796.039" y="221.561">7</text>
</g>
<g clip-path="url(#clip00)">
<text style="fill:#000000; fill-opacity:1; font-family:Arial,Helvetica Neue,Helvetica,sans-serif; font-size:12; text-anchor:start;" transform="rotate(0, 22.9611, 183.126)" x="22.9611" y="183.126">10</text>
</g>
<g clip-path="url(#clip00)">
<text style="fill:#000000; fill-opacity:1; font-family:Arial,Helvetica Neue,Helvetica,sans-serif; font-size:10; text-anchor:start;" transform="rotate(0, 36.1403, 176.273)" x="36.1403" y="176.273">-</text>
</g>
<g clip-path="url(#clip00)">
<text style="fill:#000000; fill-opacity:1; font-family:Arial,Helvetica Neue,Helvetica,sans-serif; font-size:10; text-anchor:start;" transform="rotate(0, 41.764, 176.273)" x="41.764" y="176.273">5</text>
</g>
<g clip-path="url(#clip00)">
<text style="fill:#000000; fill-opacity:1; font-family:Arial,Helvetica Neue,Helvetica,sans-serif; font-size:12; text-anchor:start;" transform="rotate(0, 22.9611, 148.38)" x="22.9611" y="148.38">10</text>
</g>
<g clip-path="url(#clip00)">
<text style="fill:#000000; fill-opacity:1; font-family:Arial,Helvetica Neue,Helvetica,sans-serif; font-size:10; text-anchor:start;" transform="rotate(0, 36.1403, 141.527)" x="36.1403" y="141.527">-</text>
</g>
<g clip-path="url(#clip00)">
<text style="fill:#000000; fill-opacity:1; font-family:Arial,Helvetica Neue,Helvetica,sans-serif; font-size:10; text-anchor:start;" transform="rotate(0, 41.764, 141.527)" x="41.764" y="141.527">4</text>
</g>
<g clip-path="url(#clip00)">
<text style="fill:#000000; fill-opacity:1; font-family:Arial,Helvetica Neue,Helvetica,sans-serif; font-size:12; text-anchor:start;" transform="rotate(0, 22.9611, 113.634)" x="22.9611" y="113.634">10</text>
</g>
<g clip-path="url(#clip00)">
<text style="fill:#000000; fill-opacity:1; font-family:Arial,Helvetica Neue,Helvetica,sans-serif; font-size:10; text-anchor:start;" transform="rotate(0, 36.1403, 106.781)" x="36.1403" y="106.781">-</text>
</g>
<g clip-path="url(#clip00)">
<text style="fill:#000000; fill-opacity:1; font-family:Arial,Helvetica Neue,Helvetica,sans-serif; font-size:10; text-anchor:start;" transform="rotate(0, 41.764, 106.781)" x="41.764" y="106.781">3</text>
</g>
<g clip-path="url(#clip00)">
<text style="fill:#000000; fill-opacity:1; font-family:Arial,Helvetica Neue,Helvetica,sans-serif; font-size:12; text-anchor:start;" transform="rotate(0, 22.9611, 78.8878)" x="22.9611" y="78.8878">10</text>
</g>
<g clip-path="url(#clip00)">
<text style="fill:#000000; fill-opacity:1; font-family:Arial,Helvetica Neue,Helvetica,sans-serif; font-size:10; text-anchor:start;" transform="rotate(0, 36.1403, 72.0352)" x="36.1403" y="72.0352">-</text>
</g>
<g clip-path="url(#clip00)">
<text style="fill:#000000; fill-opacity:1; font-family:Arial,Helvetica Neue,Helvetica,sans-serif; font-size:10; text-anchor:start;" transform="rotate(0, 41.764, 72.0352)" x="41.764" y="72.0352">2</text>
</g>
<g clip-path="url(#clip00)">
<text style="fill:#000000; fill-opacity:1; font-family:Arial,Helvetica Neue,Helvetica,sans-serif; font-size:12; text-anchor:start;" transform="rotate(0, 22.9611, 44.1417)" x="22.9611" y="44.1417">10</text>
</g>
<g clip-path="url(#clip00)">
<text style="fill:#000000; fill-opacity:1; font-family:Arial,Helvetica Neue,Helvetica,sans-serif; font-size:10; text-anchor:start;" transform="rotate(0, 36.1403, 37.2891)" x="36.1403" y="37.2891">-</text>
</g>
<g clip-path="url(#clip00)">
<text style="fill:#000000; fill-opacity:1; font-family:Arial,Helvetica Neue,Helvetica,sans-serif; font-size:10; text-anchor:start;" transform="rotate(0, 41.764, 37.2891)" x="41.764" y="37.2891">1</text>
</g>
<g clip-path="url(#clip00)">
<text style="fill:#000000; fill-opacity:1; font-family:Arial,Helvetica Neue,Helvetica,sans-serif; font-size:16; text-anchor:middle;" transform="rotate(0, 423.622, 245.631)" x="423.622" y="245.631">Problem size N</text>
</g>
<g clip-path="url(#clip00)">
<text style="fill:#000000; fill-opacity:1; font-family:Arial,Helvetica Neue,Helvetica,sans-serif; font-size:16; text-anchor:middle;" transform="rotate(-90, 14.4, 108.268)" x="14.4" y="108.268">Time in Seconds</text>
</g>
<polyline clip-path="url(#clip02)" style="stroke:#ffdc00; stroke-width:2; stroke-opacity:1; fill:none" points="
  55.1181,178.083 177.953,177.581 300.787,176.044 423.622,173.893 546.457,156.084 669.291,126.002 792.126,90.5784 
  "/>
<polyline clip-path="url(#clip02)" style="stroke:#2ecc40; stroke-width:2; stroke-opacity:1; fill:none" points="
  55.1181,158.915 177.953,162.732 300.787,163.361 423.622,162.393 546.457,153.036 669.291,127.117 792.126,93.2521 
  "/>
<polyline clip-path="url(#clip02)" style="stroke:#39cccc; stroke-width:2; stroke-opacity:1; fill:none" points="
  55.1181,205.855 177.953,181.338 300.787,167.046 423.622,136.61 546.457,102.427 669.291,66.7371 792.126,31.0268 
  "/>
<polyline clip-path="url(#clip02)" style="stroke:#0074d9; stroke-width:2; stroke-opacity:1; fill:none" points="
  55.1181,179.144 177.953,179.051 300.787,178.677 423.622,175.689 546.457,156.298 669.291,125.588 792.126,90.2162 
  "/>
<polyline clip-path="url(#clip02)" style="stroke:#ff4136; stroke-width:2; stroke-opacity:1; fill:none" points="
  55.1181,47.7278 177.953,47.7252 300.787,47.7096 423.622,47.7441 546.457,47.7426 669.291,47.6246 792.126,47.363 
  "/>
<polyline clip-path="url(#clip02)" style="stroke:#f012be; stroke-width:2; stroke-opacity:1; fill:none" points="
  55.1181,208.661 177.953,181.176 300.787,147.471 423.622,112.785 546.457,78.084 669.291,42.8541 792.126,7.87402 
  "/>
<polyline clip-path="url(#clip02)" style="stroke:#01ff70; stroke-width:2; stroke-opacity:1; fill:none" points="
  55.1181,47.8769 177.953,47.73 300.787,47.8131 423.622,47.7433 546.457,47.6208 669.291,47.5114 792.126,46.4709 
  "/>
<polygon clip-path="url(#clip00)" points="
-2.84243e+09,47.7354 -1.76392e+09,47.7354 -1.76392e+09,-53.3164 -2.84243e+09,-53.3164 
  " fill="#ffffff" fill-opacity="1"/>
<defs>
  <clipPath id="clip03">
    <rect x="59" y="275" width="322" height="202"/>
  </clipPath>
</defs>
<g clip-path="url(#clip00)">
<text style="fill:#000000; fill-opacity:1; font-family:Arial,Helvetica Neue,Helvetica,sans-serif; font-size:21; text-anchor:start;" transform="rotate(0, 184.159, 275.597)" x="184.159" y="275.597">N = 10</text>
</g>
<g clip-path="url(#clip00)">
<text style="fill:#000000; fill-opacity:1; font-family:Arial,Helvetica Neue,Helvetica,sans-serif; font-size:16; text-anchor:start;" transform="rotate(0, 245.842, 263.605)" x="245.842" y="263.605">1</text>
</g>
<polygon clip-path="url(#clip03)" points="
376.299,476.378 320.501,476.378 320.501,449.874 376.299,449.874 376.299,476.378 
  " fill="#e53a15" fill-opacity="1"/>
<polyline clip-path="url(#clip03)" style="stroke:#000000; stroke-width:0; stroke-opacity:1; fill:none" points="
  376.299,476.378 320.501,476.378 320.501,449.874 376.299,449.874 376.299,476.378 
  "/>
<polygon clip-path="url(#clip03)" points="
307.049,476.378 315.08,476.378 315.08,449.874 307.049,449.874 307.049,476.378 
  " fill="#ff4136" fill-opacity="1"/>
<polyline clip-path="url(#clip03)" style="stroke:#000000; stroke-width:0; stroke-opacity:1; fill:none" points="
  307.049,476.378 315.08,476.378 315.08,449.874 307.049,449.874 307.049,476.378 
  "/>
<polygon clip-path="url(#clip03)" points="
303.033,476.378 191.437,476.378 191.437,449.874 303.033,449.874 303.033,476.378 
  " fill="#ffffff" fill-opacity="0"/>
<polyline clip-path="url(#clip03)" style="stroke:#999999; stroke-width:1; stroke-opacity:0.9; fill:none" points="
  303.033,476.378 191.437,476.378 191.437,449.874 303.033,449.874 303.033,476.378 
  "/>
<polygon clip-path="url(#clip03)" points="
176.378,476.378 184.41,476.378 184.41,449.874 176.378,449.874 176.378,476.378 
  " fill="#01ff70" fill-opacity="1"/>
<polyline clip-path="url(#clip03)" style="stroke:#000000; stroke-width:0; stroke-opacity:1; fill:none" points="
  176.378,476.378 184.41,476.378 184.41,449.874 176.378,449.874 176.378,476.378 
  "/>
<polygon clip-path="url(#clip03)" points="
172.363,476.378 60.7671,476.378 60.7671,449.874 172.363,449.874 172.363,476.378 
  " fill="#ffffff" fill-opacity="0"/>
<polyline clip-path="url(#clip03)" style="stroke:#999999; stroke-width:1; stroke-opacity:0.9; fill:none" points="
  172.363,476.378 60.7671,476.378 60.7671,449.874 172.363,449.874 172.363,476.378 
  "/>
<polygon clip-path="url(#clip03)" points="
376.299,445.858 287.023,445.858 287.023,419.354 376.299,419.354 376.299,445.858 
  " fill="#d95c11" fill-opacity="1"/>
<polyline clip-path="url(#clip03)" style="stroke:#000000; stroke-width:0; stroke-opacity:1; fill:none" points="
  376.299,445.858 287.023,445.858 287.023,419.354 376.299,419.354 376.299,445.858 
  "/>
<polygon clip-path="url(#clip03)" points="
273.57,445.858 281.602,445.858 281.602,419.354 273.57,419.354 273.57,445.858 
  " fill="#2ecc40" fill-opacity="1"/>
<polyline clip-path="url(#clip03)" style="stroke:#000000; stroke-width:0; stroke-opacity:1; fill:none" points="
  273.57,445.858 281.602,445.858 281.602,419.354 273.57,419.354 273.57,445.858 
  "/>
<polygon clip-path="url(#clip03)" points="
269.554,445.858 213.757,445.858 213.757,419.354 269.554,419.354 269.554,445.858 
  " fill="#ffffff" fill-opacity="0"/>
<polyline clip-path="url(#clip03)" style="stroke:#999999; stroke-width:1; stroke-opacity:0.9; fill:none" points="
  269.554,445.858 213.757,445.858 213.757,419.354 269.554,419.354 269.554,445.858 
  "/>
<polygon clip-path="url(#clip03)" points="
376.299,415.339 287.023,415.339 287.023,388.835 376.299,388.835 376.299,415.339 
  " fill="#cd7f0d" fill-opacity="1"/>
<polyline clip-path="url(#clip03)" style="stroke:#000000; stroke-width:0; stroke-opacity:1; fill:none" points="
  376.299,415.339 287.023,415.339 287.023,388.835 376.299,388.835 376.299,415.339 
  "/>
<polygon clip-path="url(#clip03)" points="
273.57,415.339 281.602,415.339 281.602,388.835 273.57,388.835 273.57,415.339 
  " fill="#ffdc00" fill-opacity="1"/>
<polyline clip-path="url(#clip03)" style="stroke:#000000; stroke-width:0; stroke-opacity:1; fill:none" points="
  273.57,415.339 281.602,415.339 281.602,388.835 273.57,388.835 273.57,415.339 
  "/>
<polygon clip-path="url(#clip03)" points="
269.554,415.339 176.558,415.339 176.558,388.835 269.554,388.835 269.554,415.339 
  " fill="#ffffff" fill-opacity="0"/>
<polyline clip-path="url(#clip03)" style="stroke:#999999; stroke-width:1; stroke-opacity:0.9; fill:none" points="
  269.554,415.339 176.558,415.339 176.558,388.835 269.554,388.835 269.554,415.339 
  "/>
<polygon clip-path="url(#clip03)" points="
376.299,384.819 287.023,384.819 287.023,358.315 376.299,358.315 376.299,384.819 
  " fill="#c2a008" fill-opacity="1"/>
<polyline clip-path="url(#clip03)" style="stroke:#000000; stroke-width:0; stroke-opacity:1; fill:none" points="
  376.299,384.819 287.023,384.819 287.023,358.315 376.299,358.315 376.299,384.819 
  "/>
<polygon clip-path="url(#clip03)" points="
273.57,384.819 281.602,384.819 281.602,358.315 273.57,358.315 273.57,384.819 
  " fill="#0074d9" fill-opacity="1"/>
<polyline clip-path="url(#clip03)" style="stroke:#000000; stroke-width:0; stroke-opacity:1; fill:none" points="
  273.57,384.819 281.602,384.819 281.602,358.315 273.57,358.315 273.57,384.819 
  "/>
<polygon clip-path="url(#clip03)" points="
269.554,384.819 195.157,384.819 195.157,358.315 269.554,358.315 269.554,384.819 
  " fill="#ffffff" fill-opacity="0"/>
<polyline clip-path="url(#clip03)" style="stroke:#999999; stroke-width:1; stroke-opacity:0.9; fill:none" points="
  269.554,384.819 195.157,384.819 195.157,358.315 269.554,358.315 269.554,384.819 
  "/>
<polygon clip-path="url(#clip03)" points="
376.299,354.299 275.863,354.299 275.863,327.795 376.299,327.795 376.299,354.299 
  " fill="#b6c304" fill-opacity="1"/>
<polyline clip-path="url(#clip03)" style="stroke:#000000; stroke-width:0; stroke-opacity:1; fill:none" points="
  376.299,354.299 275.863,354.299 275.863,327.795 376.299,327.795 376.299,354.299 
  "/>
<polygon clip-path="url(#clip03)" points="
262.41,354.299 270.442,354.299 270.442,327.795 262.41,327.795 262.41,354.299 
  " fill="#39cccc" fill-opacity="1"/>
<polyline clip-path="url(#clip03)" style="stroke:#000000; stroke-width:0; stroke-opacity:1; fill:none" points="
  262.41,354.299 270.442,354.299 270.442,327.795 262.41,327.795 262.41,354.299 
  "/>
<polygon clip-path="url(#clip03)" points="
258.395,354.299 100.301,354.299 100.301,327.795 258.395,327.795 258.395,354.299 
  " fill="#ffffff" fill-opacity="0"/>
<polyline clip-path="url(#clip03)" style="stroke:#999999; stroke-width:1; stroke-opacity:0.9; fill:none" points="
  258.395,354.299 100.301,354.299 100.301,327.795 258.395,327.795 258.395,354.299 
  "/>
<polygon clip-path="url(#clip03)" points="
376.299,323.78 275.863,323.78 275.863,297.276 376.299,297.276 376.299,323.78 
  " fill="#aae500" fill-opacity="1"/>
<polyline clip-path="url(#clip03)" style="stroke:#000000; stroke-width:0; stroke-opacity:1; fill:none" points="
  376.299,323.78 275.863,323.78 275.863,297.276 376.299,297.276 376.299,323.78 
  "/>
<polygon clip-path="url(#clip03)" points="
262.41,323.78 270.442,323.78 270.442,297.276 262.41,297.276 262.41,323.78 
  " fill="#f012be" fill-opacity="1"/>
<polyline clip-path="url(#clip03)" style="stroke:#000000; stroke-width:0; stroke-opacity:1; fill:none" points="
  262.41,323.78 270.442,323.78 270.442,297.276 262.41,297.276 262.41,323.78 
  "/>
<polygon clip-path="url(#clip03)" points="
258.395,323.78 165.398,323.78 165.398,297.276 258.395,297.276 258.395,323.78 
  " fill="#ffffff" fill-opacity="0"/>
<polyline clip-path="url(#clip03)" style="stroke:#999999; stroke-width:1; stroke-opacity:0.9; fill:none" points="
  258.395,323.78 165.398,323.78 165.398,297.276 258.395,297.276 258.395,323.78 
  "/>
<g clip-path="url(#clip00)">
<text style="fill:#ffffff; fill-opacity:1; font-family:Arial,Helvetica Neue,Helvetica,sans-serif; font-size:16; text-anchor:end;" transform="rotate(0, 373.087, 470.933)" x="373.087" y="470.933">1.00x</text>
</g>
<g clip-path="url(#clip00)">
<text style="fill:#000000; fill-opacity:1; font-family:Arial,Helvetica Neue,Helvetica,sans-serif; font-size:16; text-anchor:end;" transform="rotate(0, 298.214, 470.933)" x="298.214" y="470.933">arrayfire cu</text>
</g>
<g clip-path="url(#clip00)">
<text style="fill:#000000; fill-opacity:1; font-family:Arial,Helvetica Neue,Helvetica,sans-serif; font-size:16; text-anchor:end;" transform="rotate(0, 167.544, 470.933)" x="167.544" y="470.933">arrayfire cl</text>
</g>
<g clip-path="url(#clip00)">
<text style="fill:#ffffff; fill-opacity:1; font-family:Arial,Helvetica Neue,Helvetica,sans-serif; font-size:16; text-anchor:end;" transform="rotate(0, 373.087, 440.413)" x="373.087" y="440.413">1584.85x</text>
</g>
<g clip-path="url(#clip00)">
<text style="fill:#000000; fill-opacity:1; font-family:Arial,Helvetica Neue,Helvetica,sans-serif; font-size:16; text-anchor:end;" transform="rotate(0, 264.735, 440.413)" x="264.735" y="440.413">opencl</text>
</g>
<g clip-path="url(#clip00)">
<text style="fill:#ffffff; fill-opacity:1; font-family:Arial,Helvetica Neue,Helvetica,sans-serif; font-size:16; text-anchor:end;" transform="rotate(0, 373.087, 409.894)" x="373.087" y="409.894">5644.80x</text>
</g>
<g clip-path="url(#clip00)">
<text style="fill:#000000; fill-opacity:1; font-family:Arial,Helvetica Neue,Helvetica,sans-serif; font-size:16; text-anchor:end;" transform="rotate(0, 264.735, 409.894)" x="264.735" y="409.894">cudanative</text>
</g>
<g clip-path="url(#clip00)">
<text style="fill:#ffffff; fill-opacity:1; font-family:Arial,Helvetica Neue,Helvetica,sans-serif; font-size:16; text-anchor:end;" transform="rotate(0, 373.087, 379.374)" x="373.087" y="379.374">6055.89x</text>
</g>
<g clip-path="url(#clip00)">
<text style="fill:#000000; fill-opacity:1; font-family:Arial,Helvetica Neue,Helvetica,sans-serif; font-size:16; text-anchor:end;" transform="rotate(0, 264.735, 379.374)" x="264.735" y="379.374">cuarrays</text>
</g>
<g clip-path="url(#clip00)">
<text style="fill:#ffffff; fill-opacity:1; font-family:Arial,Helvetica Neue,Helvetica,sans-serif; font-size:16; text-anchor:end;" transform="rotate(0, 373.087, 348.854)" x="373.087" y="348.854">35557.68x</text>
</g>
<g clip-path="url(#clip00)">
<text style="fill:#000000; fill-opacity:1; font-family:Arial,Helvetica Neue,Helvetica,sans-serif; font-size:16; text-anchor:end;" transform="rotate(0, 253.576, 348.854)" x="253.576" y="348.854">jl 4core 8threads</text>
</g>
<g clip-path="url(#clip00)">
<text style="fill:#ffffff; fill-opacity:1; font-family:Arial,Helvetica Neue,Helvetica,sans-serif; font-size:16; text-anchor:end;" transform="rotate(0, 373.087, 318.335)" x="373.087" y="318.335">42825.44x</text>
</g>
<g clip-path="url(#clip00)">
<text style="fill:#000000; fill-opacity:1; font-family:Arial,Helvetica Neue,Helvetica,sans-serif; font-size:16; text-anchor:end;" transform="rotate(0, 253.576, 318.335)" x="253.576" y="318.335">julia base</text>
</g>
<polygon clip-path="url(#clip00)" points="
459.055,476.378 780.315,476.378 780.315,275.591 459.055,275.591 
  " fill="#ffffff" fill-opacity="1"/>
<defs>
  <clipPath id="clip04">
    <rect x="459" y="275" width="322" height="202"/>
  </clipPath>
</defs>
<g clip-path="url(#clip00)">
<text style="fill:#000000; fill-opacity:1; font-family:Arial,Helvetica Neue,Helvetica,sans-serif; font-size:21; text-anchor:start;" transform="rotate(0, 584.159, 275.597)" x="584.159" y="275.597">N = 10</text>
</g>
<g clip-path="url(#clip00)">
<text style="fill:#000000; fill-opacity:1; font-family:Arial,Helvetica Neue,Helvetica,sans-serif; font-size:16; text-anchor:start;" transform="rotate(0, 645.842, 263.605)" x="645.842" y="263.605">7</text>
</g>
<polygon clip-path="url(#clip04)" points="
776.299,476.378 720.501,476.378 720.501,449.874 776.299,449.874 776.299,476.378 
  " fill="#e53a15" fill-opacity="1"/>
<polyline clip-path="url(#clip04)" style="stroke:#000000; stroke-width:0; stroke-opacity:1; fill:none" points="
  776.299,476.378 720.501,476.378 720.501,449.874 776.299,449.874 776.299,476.378 
  "/>
<polygon clip-path="url(#clip04)" points="
707.049,476.378 715.08,476.378 715.08,449.874 707.049,449.874 707.049,476.378 
  " fill="#f012be" fill-opacity="1"/>
<polyline clip-path="url(#clip04)" style="stroke:#000000; stroke-width:0; stroke-opacity:1; fill:none" points="
  707.049,476.378 715.08,476.378 715.08,449.874 707.049,449.874 707.049,476.378 
  "/>
<polygon clip-path="url(#clip04)" points="
703.033,476.378 610.037,476.378 610.037,449.874 703.033,449.874 703.033,476.378 
  " fill="#ffffff" fill-opacity="0"/>
<polyline clip-path="url(#clip04)" style="stroke:#999999; stroke-width:1; stroke-opacity:0.9; fill:none" points="
  703.033,476.378 610.037,476.378 610.037,449.874 703.033,449.874 703.033,476.378 
  "/>
<polygon clip-path="url(#clip04)" points="
776.299,445.858 720.501,445.858 720.501,419.354 776.299,419.354 776.299,445.858 
  " fill="#d95c11" fill-opacity="1"/>
<polyline clip-path="url(#clip04)" style="stroke:#000000; stroke-width:0; stroke-opacity:1; fill:none" points="
  776.299,445.858 720.501,445.858 720.501,419.354 776.299,419.354 776.299,445.858 
  "/>
<polygon clip-path="url(#clip04)" points="
707.049,445.858 715.08,445.858 715.08,419.354 707.049,419.354 707.049,445.858 
  " fill="#39cccc" fill-opacity="1"/>
<polyline clip-path="url(#clip04)" style="stroke:#000000; stroke-width:0; stroke-opacity:1; fill:none" points="
  707.049,445.858 715.08,445.858 715.08,419.354 707.049,419.354 707.049,445.858 
  "/>
<polygon clip-path="url(#clip04)" points="
703.033,445.858 544.939,445.858 544.939,419.354 703.033,419.354 703.033,445.858 
  " fill="#ffffff" fill-opacity="0"/>
<polyline clip-path="url(#clip04)" style="stroke:#999999; stroke-width:1; stroke-opacity:0.9; fill:none" points="
  703.033,445.858 544.939,445.858 544.939,419.354 703.033,419.354 703.033,445.858 
  "/>
<polygon clip-path="url(#clip04)" points="
776.299,415.339 709.342,415.339 709.342,388.835 776.299,388.835 776.299,415.339 
  " fill="#cd7f0d" fill-opacity="1"/>
<polyline clip-path="url(#clip04)" style="stroke:#000000; stroke-width:0; stroke-opacity:1; fill:none" points="
  776.299,415.339 709.342,415.339 709.342,388.835 776.299,388.835 776.299,415.339 
  "/>
<polygon clip-path="url(#clip04)" points="
695.889,415.339 703.921,415.339 703.921,388.835 695.889,388.835 695.889,415.339 
  " fill="#01ff70" fill-opacity="1"/>
<polyline clip-path="url(#clip04)" style="stroke:#000000; stroke-width:0; stroke-opacity:1; fill:none" points="
  695.889,415.339 703.921,415.339 703.921,388.835 695.889,388.835 695.889,415.339 
  "/>
<polygon clip-path="url(#clip04)" points="
691.873,415.339 580.278,415.339 580.278,388.835 691.873,388.835 691.873,415.339 
  " fill="#ffffff" fill-opacity="0"/>
<polyline clip-path="url(#clip04)" style="stroke:#999999; stroke-width:1; stroke-opacity:0.9; fill:none" points="
  691.873,415.339 580.278,415.339 580.278,388.835 691.873,388.835 691.873,415.339 
  "/>
<polygon clip-path="url(#clip04)" points="
776.299,384.819 709.342,384.819 709.342,358.315 776.299,358.315 776.299,384.819 
  " fill="#c2a008" fill-opacity="1"/>
<polyline clip-path="url(#clip04)" style="stroke:#000000; stroke-width:0; stroke-opacity:1; fill:none" points="
  776.299,384.819 709.342,384.819 709.342,358.315 776.299,358.315 776.299,384.819 
  "/>
<polygon clip-path="url(#clip04)" points="
695.889,384.819 703.921,384.819 703.921,358.315 695.889,358.315 695.889,384.819 
  " fill="#ff4136" fill-opacity="1"/>
<polyline clip-path="url(#clip04)" style="stroke:#000000; stroke-width:0; stroke-opacity:1; fill:none" points="
  695.889,384.819 703.921,384.819 703.921,358.315 695.889,358.315 695.889,384.819 
  "/>
<polygon clip-path="url(#clip04)" points="
691.873,384.819 580.278,384.819 580.278,358.315 691.873,358.315 691.873,384.819 
  " fill="#ffffff" fill-opacity="0"/>
<polyline clip-path="url(#clip04)" style="stroke:#999999; stroke-width:1; stroke-opacity:0.9; fill:none" points="
  691.873,384.819 580.278,384.819 580.278,358.315 691.873,358.315 691.873,384.819 
  "/>
<polygon clip-path="url(#clip04)" points="
776.299,354.299 698.182,354.299 698.182,327.795 776.299,327.795 776.299,354.299 
  " fill="#b6c304" fill-opacity="1"/>
<polyline clip-path="url(#clip04)" style="stroke:#000000; stroke-width:0; stroke-opacity:1; fill:none" points="
  776.299,354.299 698.182,354.299 698.182,327.795 776.299,327.795 776.299,354.299 
  "/>
<polygon clip-path="url(#clip04)" points="
684.73,354.299 692.761,354.299 692.761,327.795 684.73,327.795 684.73,354.299 
  " fill="#ffdc00" fill-opacity="1"/>
<polyline clip-path="url(#clip04)" style="stroke:#000000; stroke-width:0; stroke-opacity:1; fill:none" points="
  684.73,354.299 692.761,354.299 692.761,327.795 684.73,327.795 684.73,354.299 
  "/>
<polygon clip-path="url(#clip04)" points="
680.714,354.299 587.718,354.299 587.718,327.795 680.714,327.795 680.714,354.299 
  " fill="#ffffff" fill-opacity="0"/>
<polyline clip-path="url(#clip04)" style="stroke:#999999; stroke-width:1; stroke-opacity:0.9; fill:none" points="
  680.714,354.299 587.718,354.299 587.718,327.795 680.714,327.795 680.714,354.299 
  "/>
<polygon clip-path="url(#clip04)" points="
572.659,354.299 580.69,354.299 580.69,327.795 572.659,327.795 572.659,354.299 
  " fill="#0074d9" fill-opacity="1"/>
<polyline clip-path="url(#clip04)" style="stroke:#000000; stroke-width:0; stroke-opacity:1; fill:none" points="
  572.659,354.299 580.69,354.299 580.69,327.795 572.659,327.795 572.659,354.299 
  "/>
<polygon clip-path="url(#clip04)" points="
568.643,354.299 494.246,354.299 494.246,327.795 568.643,327.795 568.643,354.299 
  " fill="#ffffff" fill-opacity="0"/>
<polyline clip-path="url(#clip04)" style="stroke:#999999; stroke-width:1; stroke-opacity:0.9; fill:none" points="
  568.643,354.299 494.246,354.299 494.246,327.795 568.643,327.795 568.643,354.299 
  "/>
<polygon clip-path="url(#clip04)" points="
776.299,323.78 698.182,323.78 698.182,297.276 776.299,297.276 776.299,323.78 
  " fill="#aae500" fill-opacity="1"/>
<polyline clip-path="url(#clip04)" style="stroke:#000000; stroke-width:0; stroke-opacity:1; fill:none" points="
  776.299,323.78 698.182,323.78 698.182,297.276 776.299,297.276 776.299,323.78 
  "/>
<polygon clip-path="url(#clip04)" points="
684.73,323.78 692.761,323.78 692.761,297.276 684.73,297.276 684.73,323.78 
  " fill="#2ecc40" fill-opacity="1"/>
<polyline clip-path="url(#clip04)" style="stroke:#000000; stroke-width:0; stroke-opacity:1; fill:none" points="
  684.73,323.78 692.761,323.78 692.761,297.276 684.73,297.276 684.73,323.78 
  "/>
<polygon clip-path="url(#clip04)" points="
680.714,323.78 624.916,323.78 624.916,297.276 680.714,297.276 680.714,323.78 
  " fill="#ffffff" fill-opacity="0"/>
<polyline clip-path="url(#clip04)" style="stroke:#999999; stroke-width:1; stroke-opacity:0.9; fill:none" points="
  680.714,323.78 624.916,323.78 624.916,297.276 680.714,297.276 680.714,323.78 
  "/>
<g clip-path="url(#clip00)">
<text style="fill:#ffffff; fill-opacity:1; font-family:Arial,Helvetica Neue,Helvetica,sans-serif; font-size:16; text-anchor:end;" transform="rotate(0, 773.087, 470.933)" x="773.087" y="470.933">1.00x</text>
</g>
<g clip-path="url(#clip00)">
<text style="fill:#000000; fill-opacity:1; font-family:Arial,Helvetica Neue,Helvetica,sans-serif; font-size:16; text-anchor:end;" transform="rotate(0, 698.214, 470.933)" x="698.214" y="470.933">julia base</text>
</g>
<g clip-path="url(#clip00)">
<text style="fill:#ffffff; fill-opacity:1; font-family:Arial,Helvetica Neue,Helvetica,sans-serif; font-size:16; text-anchor:end;" transform="rotate(0, 773.087, 440.413)" x="773.087" y="440.413">4.64x</text>
</g>
<g clip-path="url(#clip00)">
<text style="fill:#000000; fill-opacity:1; font-family:Arial,Helvetica Neue,Helvetica,sans-serif; font-size:16; text-anchor:end;" transform="rotate(0, 698.214, 440.413)" x="698.214" y="440.413">jl 4core 8threads</text>
</g>
<g clip-path="url(#clip00)">
<text style="fill:#ffffff; fill-opacity:1; font-family:Arial,Helvetica Neue,Helvetica,sans-serif; font-size:16; text-anchor:end;" transform="rotate(0, 773.087, 409.894)" x="773.087" y="409.894">12.91x</text>
</g>
<g clip-path="url(#clip00)">
<text style="fill:#000000; fill-opacity:1; font-family:Arial,Helvetica Neue,Helvetica,sans-serif; font-size:16; text-anchor:end;" transform="rotate(0, 687.054, 409.894)" x="687.054" y="409.894">arrayfire cl</text>
</g>
<g clip-path="url(#clip00)">
<text style="fill:#ffffff; fill-opacity:1; font-family:Arial,Helvetica Neue,Helvetica,sans-serif; font-size:16; text-anchor:end;" transform="rotate(0, 773.087, 379.374)" x="773.087" y="379.374">13.69x</text>
</g>
<g clip-path="url(#clip00)">
<text style="fill:#000000; fill-opacity:1; font-family:Arial,Helvetica Neue,Helvetica,sans-serif; font-size:16; text-anchor:end;" transform="rotate(0, 687.054, 379.374)" x="687.054" y="379.374">arrayfire cu</text>
</g>
<g clip-path="url(#clip00)">
<text style="fill:#ffffff; fill-opacity:1; font-family:Arial,Helvetica Neue,Helvetica,sans-serif; font-size:16; text-anchor:end;" transform="rotate(0, 773.087, 348.854)" x="773.087" y="348.854">240.02x</text>
</g>
<g clip-path="url(#clip00)">
<text style="fill:#000000; fill-opacity:1; font-family:Arial,Helvetica Neue,Helvetica,sans-serif; font-size:16; text-anchor:end;" transform="rotate(0, 675.895, 348.854)" x="675.895" y="348.854">cudanative</text>
</g>
<g clip-path="url(#clip00)">
<text style="fill:#000000; fill-opacity:1; font-family:Arial,Helvetica Neue,Helvetica,sans-serif; font-size:16; text-anchor:end;" transform="rotate(0, 563.824, 348.854)" x="563.824" y="348.854">cuarrays</text>
</g>
<g clip-path="url(#clip00)">
<text style="fill:#ffffff; fill-opacity:1; font-family:Arial,Helvetica Neue,Helvetica,sans-serif; font-size:16; text-anchor:end;" transform="rotate(0, 773.087, 318.335)" x="773.087" y="318.335">286.55x</text>
</g>
<g clip-path="url(#clip00)">
<text style="fill:#000000; fill-opacity:1; font-family:Arial,Helvetica Neue,Helvetica,sans-serif; font-size:16; text-anchor:end;" transform="rotate(0, 675.895, 318.335)" x="675.895" y="318.335">opencl</text>
</g>
</svg>
